<svg viewBox="0 0 32 32" height="256" width="256" xmlns="http://www.w3.org/2000/svg">
  
  
  
  <polygon fill="#1e40af" points="15,3.5 29.5,10 16.5,18.5 3,10"></polygon>
  
  <polygon fill="#2563eb" points="3,10 16.5,18.5 16.5,29.5 3,21"></polygon>
  
  <polygon fill="#1e3a8a" points="29.5,10 16.5,18.5 16.5,29.5 29.5,21"></polygon>

  
  <polygon opacity="0.85" stroke-linejoin="round" stroke-width="1.4" stroke="#1a366f" fill="none" points="15,3.5 29.5,10 29.5,21 16.5,29.5 3,21 3,10"></polygon>

  
  <line opacity="0.85" stroke-linecap="round" stroke-width="1.2" stroke="#1a366f" y2="18.5" x2="16.5" y1="10" x1="3"></line>
  <line opacity="0.85" stroke-linecap="round" stroke-width="1.2" stroke="#1a366f" y2="18.5" x2="16.5" y1="10" x1="29.5"></line>
  <line opacity="0.85" stroke-linecap="round" stroke-width="1.2" stroke="#1a366f" y2="29.5" x2="16.5" y1="18.5" x1="16.5"></line>

  
  <g transform="translate(15.8,11.4) rotate(45) scale(0.65) translate(-15,-12.5)">
    
    <line opacity="0.85" stroke-linecap="round" stroke-width="2.0" stroke="#ffffff" y2="8" x2="21" y1="8" x1="8"></line>
    <line opacity="0.85" stroke-linecap="round" stroke-width="1.9" stroke="#ffffff" y2="15.8" x2="10.5" y1="8.2" x1="20.2"></line>
    <line opacity="0.85" stroke-linecap="round" stroke-width="2.0" stroke="#ffffff" y2="16" x2="21.5" y1="16" x1="8.5"></line>
    <line opacity="0.85" stroke-linecap="round" stroke-width="1.4" stroke="#ffffff" y2="12" x2="19.5" y1="12" x1="10"></line>
    
    
    <line stroke-linecap="round" stroke-width="1.3" stroke="#00e676" y2="8" x2="21" y1="8" x1="8"></line>
    <line stroke-linecap="round" stroke-width="1.25" stroke="#00e676" y2="15.8" x2="10.5" y1="8.2" x1="20.2"></line>
    <line stroke-linecap="round" stroke-width="1.3" stroke="#00e676" y2="16" x2="21.5" y1="16" x1="8.5"></line>
    <line stroke-linecap="round" stroke-width="0.9" stroke="#00e676" y2="12" x2="19.5" y1="12" x1="10"></line>
  </g>

  
  <g transform="translate(23.2,19.8) rotate(-30) scale(0.75) translate(-24.5,-18)">
    <line stroke-linecap="round" stroke-width="1.05" stroke="#00e676" y2="13.9" x2="27.5" y1="14.2" x1="21.5"></line>
    <line stroke-linecap="round" stroke-width="1.0" stroke="#00e676" y2="20.8" x2="22.5" y1="14.1" x1="27"></line>
    <line stroke-linecap="round" stroke-width="1.05" stroke="#00e676" y2="20.7" x2="27.8" y1="21" x1="21.8"></line>
    <line stroke-linecap="round" stroke-width="0.75" stroke="#00e676" y2="17.3" x2="27" y1="17.4" x1="22.3"></line>
  </g>

  
  <g transform="translate(9.2,19.5) rotate(30) scale(0.76) translate(-9,-18)">
    <line stroke-linecap="round" stroke-width="1.05" stroke="#00e676" y2="14.5" x2="12.8" y1="14.8" x1="5.5"></line>
    <line stroke-linecap="round" stroke-width="1.0" stroke="#00e676" y2="21" x2="7" y1="14.7" x1="12.3"></line>
    <line stroke-linecap="round" stroke-width="1.05" stroke="#00e676" y2="21.2" x2="13" y1="21.5" x1="5.8"></line>
    <line stroke-linecap="round" stroke-width="0.75" stroke="#00e676" y2="17.9" x2="12.3" y1="18" x1="6.8"></line>
  </g>

</svg>
